<svg xmlns="http://www.w3.org/2000/svg" width="24" height="24" viewBox="0 0 24 24" fill="none">
  <path d="M22 5.52c-.78.34-1.62.57-2.5.68a4.36 4.36 0 0 0 1.91-2.41 8.73 8.73 0 0 1-2.73 1.04 4.36 4.36 0 0 0-7.41 3.97 12.4 12.4 0 0 1-9-4.6 4.36 4.36 0 0 0 1.35 5.81 4.35 4.35 0 0 1-1.97-.54v.05a4.36 4.36 0 0 0 3.5 4.28 4.37 4.37 0 0 1-1.96.08 4.36 4.36 0 0 0 4.07 3.03 8.77 8.77 0 0 1-5.41 1.86A8.55 8.55 0 0 1 2 18.3a12.36 12.36 0 0 0 6.7 1.95c8.04 0 12.44-6.67 12.44-12.44 0-.19-.01-.37-.01-.56a8.87 8.87 0 0 0 2.18-2.26l-.03-.01z" fill="white"/>
</svg>
